# xmcd
#
# Track frame offsets: 
#        150
#        23450
#        37545
#        66360
#        91732
#        109647
#        139305
#        163940
#        188880
#        205550
#        231555
#        257455
#        271745
#        285752
#        306560
#
# Disc length: 4382 seconds
#
# Revision: 3
# Processed by: cddbd v1.5.2PL0 Copyright (c) Steve Scherf et al.
# Submitted via: ExactAudioCopy v0.95a4
#
DISCID=c2111c0f
DTITLE=Johnny Adams - There Is Always One More Time
DYEAR=2000
DGENRE=Blues
TTITLE0=I Feel Like Breaking Up Somebody's Home
TTITLE1=Happy Hard Times
TTITLE2=I'll Only Miss Her When I Think Of Her
TTITLE3=I Don't Know
TTITLE4=Lovers Will
TTITLE5=One Foot In The Blues
TTITLE6=Even Now
TTITLE7=Body And Fender Man
TTITLE8=There Is Always One More Time
TTITLE9=Walking On A Tightrope
TTITLE10=I Don't Want To Do Wrong
TTITLE11=A Lot Of Living To Do
TTITLE12=Wish I'd Neve Loved You At All
TTITLE13=But Not For Me
TTITLE14=Never Alone
EXTD=
EXTT0=
EXTT1=
EXTT2=
EXTT3=
EXTT4=
EXTT5=
EXTT6=
EXTT7=
EXTT8=
EXTT9=
EXTT10=
EXTT11=
EXTT12=
EXTT13=
EXTT14=
PLAYORDER=
